<?xml version="1.0" standalone="no"?>
<!DOCTYPE svg PUBLIC "-//W3C//DTD SVG 1.1//EN" "http://www.w3.org/Graphics/SVG/1.1/DTD/svg11.dtd" >
<svg viewBox="0 -410 2048 2048">
  <g transform="matrix(1 0 0 -1 0 1638)">
   <path fill="currentColor"
d="M1290 582l-42 102q-102 22 -224 22q-121 0 -222 -22l-42 -101q124 31 264 31q138 0 266 -32zM1206 788l-29 70v27q-76 11 -153 11q-75 0 -152 -11l-1 -27l-27 -70q85 15 180 15q96 0 182 -15zM1171 410q-40 30 -80 95h-32q0 -49 23 -95h89zM965 410q23 49 23 95h-32
q-39 -64 -81 -95h90zM1024 392q-14 -57 -34 -79t-53 -46q-36 -25 -85 -42.5t-109 -8.5l-281 39q-17 2 -30.5 0t-25.5 -2q-21 0 -53.5 -9.5t-50.5 -27.5l-97 159q18 20 32 28t33 17q58 27 124 33q28 2 55 1t56 2q54 -9 108.5 -16.5t109.5 -15.5q60 0 81 12q11 6 35 22t48 47
q-53 6 -108 20.5t-97 30.5l104 258q-78 45 -109 72.5t-49 63.5q-26 46 -33.5 89t-6.5 77q1 60 28.5 132.5t103.5 129.5q63 48 123 99t119 119q-74 38 -74 121q0 56 39.5 96t96.5 40q56 0 96 -40t40 -96q0 -82 -74 -121q58 -68 117.5 -119t124.5 -99q75 -57 102 -129.5
t29 -132.5q0 -34 -7 -77t-32 -89q-20 -36 -50.5 -63.5t-107.5 -72.5l104 -258q-44 -16 -99 -30.5t-106 -20.5q23 -31 47 -47t36 -22q21 -12 81 -12q54 8 108.5 15.5t109.5 16.5q27 -3 54.5 -2t56.5 -1q64 -6 124 -33q18 -9 32.5 -17t32.5 -28l-98 -159q-18 18 -50.5 27.5
t-52.5 9.5q-13 0 -26.5 2t-30.5 0l-280 -39q-60 -9 -111.5 8t-84.5 45q-33 27 -52.5 46.5t-32.5 76.5zM987 1136v-85q0 -37 37 -37v0q37 0 37 37v86h90q35 0 35 36v0q0 36 -35 36h-90v90q0 37 -37 37v0q-37 0 -37 -37v-90h-88q-35 0 -35 -36v0q0 -36 35 -36zM196 228l17 -28
l-200 -200q-13 0 -13 32zM621 652l-30 -73l-39 -39q-10 0 -37 5zM1415 1405q-8 8 -23 18l623 624q33 0 33 -7zM1525 1236q-4 11 -12 32l535 536v-45zM1518 953q11 27 19 65l511 510v-45zM1446 605l-13 32l615 614v-45zM1668 544q-15 1 -46 1l426 425v-47zM1878 474
q-9 7 -29 19l199 198v-45zM1630 0l418 416v-46l-371 -370h-47zM0 1923v44l79 80h45zM1949 0h-43l142 140v-45zM570 878q14 -16 22 -24l-592 -593v48zM1263 1527q-8 6 -24 20l499 500h45zM804 1664l-804 -806v-44l814 815q-4 11 -10 35zM1102 1919q-16 6 -34 10l117 118h45z
M0 1136l909 911h45l-954 -953v42zM0 1691l356 356h45l-401 -400v44zM0 1413l632 634h45l-677 -677v43zM502 1086q0 -13 4 -43l-506 -506v48zM1238 1778q-6 14 -14 32l238 237h45zM392 149h44l-150 -149h-45zM668 149h47l-152 -149h-45zM944 149h45l-150 -149h-45zM1227 149
l47 1l-150 -150h-47zM1503 149h49l-150 -149h-49z" />
  </g>

</svg>
