<?xml version="1.0" standalone="no"?>
<!DOCTYPE svg PUBLIC "-//W3C//DTD SVG 1.1//EN" "http://www.w3.org/Graphics/SVG/1.1/DTD/svg11.dtd" >
<svg viewBox="0 -410 2048 2048">
  <g transform="matrix(1 0 0 -1 0 1638)">
   <path fill="currentColor"
d="M1133 865q0 29 6.5 82.5t20.5 83.5q37 81 106 150q20 20 86 54q65 32 139 32q56 0 111.5 -19.5t83.5 -59.5q25 -34 25 -110q0 -60 -49 -112q-32 -33 -69 -66.5t-71 -78.5q-58 20 -161.5 31t-227.5 13zM1060 787q172 -3 282 -17t198 -33q55 54 122 103t94 84q48 65 48 162
q0 89 -43 149q-77 113 -235 113q-92 0 -192 -40q-91 -36 -132 -78q-85 -82 -124 -216q-15 -46 -16.5 -117t-1.5 -110zM1518 614q-184 51 -490 51q-308 0 -496 -52l15 -101q189 49 481 49q291 0 474 -48zM1544 315l-30 118q-195 45 -490 45q-292 0 -488 -45l-32 -119
q190 58 521 58q159 0 295 -16t224 -41zM463 522l-33 187q-1 0 -3 4q-5 7 -28.5 18.5t-54.5 39.5q-44 37 -68.5 60t-44.5 50q-61 84 -68 203q-10 115 93 229q104 114 281 107q66 -4 155 -32q29 -12 59.5 -23.5t60.5 -23.5q16 -8 28 -16q-5 21 -5 42q0 78 55.5 133t133.5 56
q78 0 133 -55.5t55 -132.5q0 -16 -4 -42q14 9 27 15q46 20 121 47q86 29 155 33q177 8 280 -107q101 -114 94 -229q-8 -119 -69 -203q-20 -27 -45 -50.5t-67 -59.5q-33 -28 -56 -39.5t-27 -18.5q-1 -2 -2 -3t-1 -2l-32 -188l66 -247q-50 -45 -224 -74t-402 -29
q-232 0 -408 30.5t-221 76.5zM988 788q0 40 -2 110.5t-15 117.5q-41 134 -124 216q-43 42 -132 78q-102 40 -193 40q-158 0 -234 -113q-43 -60 -43 -150q0 -98 48 -161q25 -36 96 -89t120 -98q87 19 196.5 33t282.5 16zM1024 1039q7 28 12 39q10 39 23 66q6 17 17.5 39.5
t24.5 51.5q8 17 17 41.5t18 48.5q8 20 8 43q0 49 -35 83.5t-85 34.5q-119 0 -119 -119q0 -23 8 -43q22 -65 34 -90q13 -29 24 -51.5t19 -39.5q13 -33 22 -66q2 -6 12 -38zM1059 1559h-71v131h-83q-34 0 -34 33v1q0 33 34 33h83v85q0 35 36 35v0q35 0 35 -35v-85h86
q33 0 33 -33v-1q0 -33 -33 -33l-85 -1zM912 865q-125 -2 -228.5 -13t-160.5 -31q-30 37 -69.5 74.5t-69.5 70.5q-50 51 -50 112q0 75 25 110q27 40 83 59.5t113 19.5q72 0 138 -32q65 -34 86 -54q68 -69 106 -150q13 -30 19.5 -83.5t7.5 -82.5zM1024 1210q-2 10 -5 17
q-6 20 -10 29q-3 7 -8 17.5t-10 22.5q-3 7 -7.5 18.5t-7.5 21.5q-3 9 -3 19q0 53 51 53q53 0 53 -52q0 -13 -4 -19q-14 -38 -15 -41q-15 -30 -19 -39q-7 -16 -9 -29q-3 -6 -4 -10.5t-2 -7.5z" />
  </g>

</svg>
