<?xml version="1.0" standalone="no"?>
<!DOCTYPE svg PUBLIC "-//W3C//DTD SVG 1.1//EN" "http://www.w3.org/Graphics/SVG/1.1/DTD/svg11.dtd" >
<svg viewBox="0 -410 2048 2048">
  <g transform="matrix(1 0 0 -1 0 1638)">
   <path fill="currentColor"
d="M490 683q4 9 13 27q17 42 17 50q-2 28 -29 28q-20 0 -47 -57q-4 -8 -12 -14q-27 -28 8 -47v0q32 -19 50 13zM1080 1054q70 92 69 205q-4 33 -38 33q-46 0 -36 -34q3 -55 -11 -91q-23 -57 -51 -85q-15 -30 18 -44v0q32 -15 49 16zM819 1542q-5 36 2 78q-60 -12 -113 -56
q-32 -17 -15 -47q17 -31 47 -10q21 11 38.5 20.5t40.5 14.5zM1756 274q-1 0 2 54.5t3 117.5q1 125 0 258.5t-36 266.5q-34 128 -75 218.5t-89 156.5q-72 108 -196 183t-259 98q4 -23 2.5 -47t0.5 -46q97 -33 183 -82t126 -106q48 -66 89 -156.5t75 -218.5q34 -133 35 -266.5
t1 -258.5q0 -63 -3 -117.5t0 -54.5h141zM1079 1697q157 -10 291 -81t228 -182q66 -78 124.5 -188t93.5 -233q40 -143 50.5 -300.5t10.5 -291.5v-218h-155.5h-403.5h-671q-9 0 -8.5 49t6.5 79q4 24 19 68t50 107q16 32 76 93.5t138 142.5q45 46 70.5 116t21.5 127
q-37 -30 -81 -49q-212 -76 -307 -220q-7 -9 -45 -81q-20 -38 -34 -52q-19 -19 -55 -21q-56 -3 -87 54q-42 -12 -75 -10q-56 21 -81 45q-51 51 -66.5 102t-15.5 110q0 84 104 222q122 159 130 242q0 36 7 81q6 31 25 60q13 20 17.5 27.5t16.5 22.5q9 12 15 18.5t15 17.5
q11 13 28 30q-53 146 -43 301q199 -71 334 -223q33 113 130 183q80 -56 127 -148zM404 861q29 20 6 48q-24 23 -53 4q-61 -40 -65 -105q1 -33 39 -31q36 3 35 37q8 32 38 47zM656 1359l22 11q30 12 19 44q-12 30 -46 20q-118 -43 -163 -158q-7 -33 24 -45q31 -10 42 22
q8 17 12 22q11 -9 29 -12q61 -10 71 54q3 22 -10 42z" />
  </g>

</svg>
