<?xml version="1.0" standalone="no"?>
<!DOCTYPE svg PUBLIC "-//W3C//DTD SVG 1.1//EN" "http://www.w3.org/Graphics/SVG/1.1/DTD/svg11.dtd" >
<svg viewBox="0 -410 2048 2048">
  <g transform="matrix(1 0 0 -1 0 1638)">
   <path fill="currentColor"
d="M1024 205h-540q-40 100 -40 209q0 185 105 332t270 210q-71 33 -115.5 99.5t-44.5 150.5q0 105 70 182t172 89q-81 61 -81 161q0 84 59.5 144t144.5 60q84 0 144 -60t60 -144q0 -100 -81 -161q102 -12 172 -89t70 -182q0 -84 -45.5 -150.5t-115.5 -99.5q165 -63 270 -210
t105 -332q0 -108 -39 -209h-540zM359 390q0 -17 2 -43l-348 -347q-13 0 -13 32zM1410 1400q-5 6 -9.5 12t-8.5 12l623 623q33 0 33 -7zM1472 1183q0 5 0.5 9.5t0.5 9.5q0 11 -2 27l577 575v-45zM1470 902q-11 10 -27 21l605 605v-45zM1594 751q-5 7 -9.5 14t-8.5 15l472 471
v-45zM1674 549q-1 5 -11 36l385 385v-47zM1677 274q4 18 8 56l363 361v-45zM1630 0l418 416v-46l-371 -370h-47zM0 1923v44l79 80h45zM1949 0h-43l142 140v-45zM475 783l-475 -474v-48l416 416q25 57 59 106zM1300 1562q8 34 8 54l430 431h45zM748 1564q-5 18 -6 38
l-742 -744v-44zM1092 1908q-12 4 -38 8l131 131h45zM0 1136l909 911h45l-954 -953v42zM0 1691l356 356h45l-401 -400v44zM0 1413l632 634h45l-677 -677v43zM578 1163l-578 -578v-48l584 585q-5 19 -6 41zM1255 1797q-8 13 -19 25l226 225h45zM359 117h45l-118 -117h-45z
M637 117h45l-119 -117h-45zM912 117h45l-118 -117h-45zM1195 117h46l-117 -117h-47zM1471 117h49l-118 -117h-49z" />
  </g>

</svg>
