<?xml version="1.0" standalone="no"?>
<!DOCTYPE svg PUBLIC "-//W3C//DTD SVG 1.1//EN" "http://www.w3.org/Graphics/SVG/1.1/DTD/svg11.dtd" >
<svg viewBox="0 -410 2048 2048">
  <g transform="matrix(1 0 0 -1 0 1638)">
   <path fill="currentColor"
d="M1588 793q-83 30 -233.5 49.5t-332.5 19.5q-178 0 -326 -18.5t-233 -48.5l50 -91q84 25 218 36t293 11t294 -11t219 -37zM1814 1461q-57 0 -97 39.5t-40 96.5q0 56 40 96.5t97 40.5q56 0 96 -40.5t40 -96.5q0 -57 -40 -96.5t-96 -39.5zM236 1461q-57 0 -96.5 39.5
t-39.5 96.5q0 56 39.5 96.5t96.5 40.5t97 -40.5t40 -96.5q0 -57 -40 -96.5t-97 -39.5zM1444 1571q-57 0 -96.5 39.5t-39.5 96.5q0 56 39.5 96t96.5 40t97 -40t40 -96q0 -57 -40 -96.5t-97 -39.5zM604 1571q-57 0 -97 39.5t-40 96.5q0 56 40 96t97 40q56 0 96 -40t40 -96
q0 -57 -40 -96.5t-96 -39.5zM1640 283q-49 -43 -220 -72t-394 -29q-227 0 -399 30t-217 75l63 240l-28 157l-88 153l-85 622l49 19l274 -462l6 550l68 12l209 -553l112 595h69l112 -593l207 551l69 -12l6 -550l275 463l47 -22l-83 -619l-89 -153l-28 -159zM1544 315l-30 118
q-195 45 -490 45q-292 0 -488 -45l-32 -119q190 58 521 58q159 0 295 -16t224 -41zM1518 614q-184 51 -490 51q-308 0 -496 -52l15 -101q189 49 481 49q291 0 474 -48zM1024 1621q-57 0 -96.5 40t-39.5 97q0 56 39.5 96t96.5 40q56 0 96.5 -40t40.5 -96q0 -57 -40.5 -97
t-96.5 -40zM338 369l-338 -337q0 -32 13 -32l309 308zM1824 1814q-6 2 -10 2q-20 0 -34 -4l235 235q33 0 33 -7zM427 184q15 -8 33 -12l-174 -172h-45zM2000 1712q-6 8 -19 24l67 68v-45zM649 131q10 -1 40 -5l-126 -126h-45zM1835 1270l7 53l206 205v-45zM948 109
l-109 -109h-45l109 110q30 0 45 -1zM1791 950l8 53l249 248v-45zM1189 111q27 3 51 3l-116 -114h-47zM1646 520l11 60l391 390v-47zM1503 149q36 8 62 15l-163 -164h-49zM1724 319l-10 38l334 334v-45zM1630 0l418 416v-46l-371 -370h-47zM0 1923v44l79 80h45zM1949 0h-43
l142 140v-45zM358 667l18 -31l-376 -375v48zM1598 1862q-10 10 -25 19l165 166h45zM238 1097l5 -41l-243 -242v44zM1132 1947q-22 11 -33 15l86 85h45zM205 1341l5 -38l-210 -209v42zM764 1855q-12 12 -25 22l170 170h45zM152 1798q-81 -34 -115 -113l-37 -38v44l356 356h45
zM58 1471q4 -6 20 -24l-78 -77v43zM407 1776l-22 -21q-13 13 -25 22l272 270h45l-146 -143q-98 -35 -124 -128zM271 855l6 -41l-277 -277v48zM1263 1804l-22 -22q-2 9 -4 19t-3 19l228 227h45l-164 -162q-51 -27 -80 -81z" />
  </g>

</svg>
