<?xml version="1.0" standalone="no"?>
<!DOCTYPE svg PUBLIC "-//W3C//DTD SVG 1.1//EN" "http://www.w3.org/Graphics/SVG/1.1/DTD/svg11.dtd" >
<svg viewBox="0 -410 2048 2048">
  <g transform="matrix(1 0 0 -1 0 1638)">
   <path fill="currentColor"
d="M1588 793q-83 30 -233.5 49.5t-332.5 19.5q-178 0 -326 -18.5t-233 -48.5l50 -91q84 25 218 36t293 11t294 -11t219 -37zM1814 1461q-57 0 -97 39.5t-40 96.5q0 56 40 96.5t97 40.5q56 0 96 -40.5t40 -96.5q0 -57 -40 -96.5t-96 -39.5zM236 1461q-57 0 -96.5 39.5
t-39.5 96.5q0 56 39.5 96.5t96.5 40.5t97 -40.5t40 -96.5q0 -57 -40 -96.5t-97 -39.5zM1444 1571q-57 0 -96.5 39.5t-39.5 96.5q0 56 39.5 96t96.5 40t97 -40t40 -96q0 -57 -40 -96.5t-97 -39.5zM604 1571q-57 0 -97 39.5t-40 96.5q0 56 40 96t97 40q56 0 96 -40t40 -96
q0 -57 -40 -96.5t-96 -39.5zM1640 283q-49 -43 -220 -72t-394 -29q-227 0 -399 30t-217 75l63 240l-28 157l-88 153l-85 622l49 19l274 -462l6 550l68 12l209 -553l112 595h69l112 -593l207 551l69 -12l6 -550l275 463l47 -22l-83 -619l-89 -153l-28 -159zM1544 315l-30 118
q-195 45 -490 45q-292 0 -488 -45l-32 -119q190 58 521 58q159 0 295 -16t224 -41zM1518 614q-184 51 -490 51q-308 0 -496 -52l15 -101q189 49 481 49q291 0 474 -48zM1024 1621q-57 0 -96.5 40t-39.5 97q0 56 39.5 96t96.5 40q56 0 96.5 -40t40.5 -96q0 -57 -40.5 -97
t-96.5 -40z" />
  </g>

</svg>
