<?xml version="1.0" standalone="no"?>
<!DOCTYPE svg PUBLIC "-//W3C//DTD SVG 1.1//EN" "http://www.w3.org/Graphics/SVG/1.1/DTD/svg11.dtd" >
<svg viewBox="0 -410 2048 2048">
  <g transform="matrix(1 0 0 -1 0 1638)">
   <path fill="currentColor"
d="M1554 444h-69l-1 16h-920v-16h-70v205l171 170v478l-222 171v375h273v-137h171v137h274v-137h170v137h274v-375l-222 -171v-478l170 -170zM1024 1552h-512v-46l73 -55h879l71 55v46h-511zM1024 1383h-350l60 -47v-57h580v57l60 47h-350zM1024 837h-290v-46l-60 -58h700
l-60 58v46h-290zM1024 665h-414l-46 -43v-58h920v58l-46 43h-414zM504 1317l-504 -503v44l478 480zM580 1118l-580 -581v48l580 580v-47zM359 1497l-359 -361v-42l359 358v45zM360 1774l-360 -361v-43l360 360v44zM579 842v46l-579 -579v-48zM1791 390l1 46l256 255v-45z
M1468 905l1 44l579 579v-45zM1468 1182v43l580 579v-45zM1688 1681v39l327 327q33 0 33 -7zM1386 1927h-44l120 120h45zM1111 1927h-44l118 120h45zM835 1928l-47 -1l121 120h45zM0 1691l356 356h45l-401 -400v44zM0 1923v44l79 80h45zM1579 736l-24 24l493 491v-45z
M1639 516v46l409 408v-47zM1663 1927h-45l120 120h45zM557 1928h-45l120 119h45zM361 119h45l-120 -119h-45zM1523 119l-121 -119h-49l121 119h49zM1630 0l418 416v-46l-371 -370h-47zM1949 0h-43l142 140v-45zM1198 119h46l-120 -119h-47zM914 119h44l-119 -119h-45z
M637 119h46l-120 -119h-45zM253 285v-46l-240 -239q-13 0 -13 32zM1485 444v-86h-921l1 86h-223v-239h1365v239h-222z" />
  </g>

</svg>
