<?xml version="1.0" standalone="no"?>
<!DOCTYPE svg PUBLIC "-//W3C//DTD SVG 1.1//EN" "http://www.w3.org/Graphics/SVG/1.1/DTD/svg11.dtd" >
<svg viewBox="0 -410 2048 2048">
  <g transform="matrix(1 0 0 -1 0 1638)">
   <path fill="currentColor"
d="M0 585l1462 1462h45l-1507 -1510v48zM0 1413l632 634h45l-677 -677v43zM0 1691l356 356h45l-401 -400v44zM0 1136l909 911h45l-954 -953v42zM0 858l1185 1189h45l-1230 -1233v44zM0 309l1738 1738h45l-1783 -1786v48zM1949 0h-43l142 140v-45zM0 1923v44l79 80h45z
M1630 0l418 416v-46l-371 -370h-47zM1353 0l695 691v-45l-646 -646h-49zM1077 0l971 970v-47l-924 -923h-47zM794 0l1254 1251v-45l-1209 -1206h-45zM518 0l1530 1528v-45l-1485 -1483h-45zM241 0l1807 1804v-45l-1762 -1759h-45zM0 32l2015 2015q33 0 33 -7l-2035 -2040
q-13 0 -13 32z" />
  </g>

</svg>
