<?xml version="1.0" standalone="no"?>
<!DOCTYPE svg PUBLIC "-//W3C//DTD SVG 1.1//EN" "http://www.w3.org/Graphics/SVG/1.1/DTD/svg11.dtd" >
<svg viewBox="0 -410 2048 2048">
  <g transform="matrix(1 0 0 -1 0 1638)">
   <path fill="currentColor"
d="M988 1138l-83 1q-34 0 -34 34v0q0 34 34 34h83v86q0 35 36 35v0q35 0 35 -35v-86h86q33 0 33 -34v0q0 -34 -33 -34h-86v-82q0 -36 -35 -36v0q-36 0 -36 36v81zM1024 560q68 0 132.5 11.5t124.5 27.5q-117 31 -257 31q-142 0 -257 -31q58 -16 123 -27.5t134 -11.5z
M1024 1649q68 0 68 68t-68 68t-68 -68t68 -68zM1024 700q117 0 225 -23l-48 123q-88 14 -177 14q-91 0 -178 -14l-48 -123q107 23 226 23zM1024 882q97 0 186 -15q98 35 142 109q38 64 38 141q0 46 -23 101.5t-75 100.5q-59 49 -129 107.5t-139 136.5q-70 -78 -140 -136.5
t-128 -107.5q-53 -45 -75.5 -100.5t-22.5 -101.5q0 -77 37 -141q43 -74 143 -109q88 15 186 15zM988 505h-32q-56 -90 -107 -113q-24 -12 -53 -22t-67 -10q-7 0 -107 16q-48 7 -76 15t-44 10q-57 7 -133 -6q-46 -8 -86 -29l48 -78q12 12 31.5 15.5t35.5 7.5q42 7 80 2
q13 -3 51 -7.5t101 -14.5q75 -11 102 -11q105 0 161 40q34 26 64.5 72.5t30.5 112.5zM1024 392q-14 -57 -34 -79t-53 -46q-36 -25 -85 -42.5t-109 -8.5l-281 39q-17 2 -30.5 0t-25.5 -2q-21 0 -53.5 -9.5t-50.5 -27.5l-97 159q18 20 32 28t33 17q58 27 124 33q28 2 55 1
t56 2q54 -9 108.5 -16.5t109.5 -15.5q60 0 81 12q11 6 35 22t48 47q-53 6 -108 20.5t-97 30.5l104 258q-78 45 -109 72.5t-49 63.5q-26 46 -33.5 89t-6.5 77q1 60 28.5 132.5t103.5 129.5q63 48 123 99t119 119q-74 38 -74 121q0 56 39.5 96t96.5 40q56 0 96 -40t40 -96
q0 -82 -74 -121q58 -68 117.5 -119t124.5 -99q75 -57 102 -129.5t29 -132.5q0 -34 -7 -77t-32 -89q-20 -36 -50.5 -63.5t-107.5 -72.5l104 -258q-44 -16 -99 -30.5t-106 -20.5q23 -31 47 -47t36 -22q21 -12 81 -12q54 8 108.5 15.5t109.5 16.5q27 -3 54.5 -2t56.5 -1
q64 -6 124 -33q18 -9 32.5 -17t32.5 -28l-98 -159q-18 18 -50.5 27.5t-52.5 9.5q-13 0 -26.5 2t-30.5 0l-280 -39q-60 -9 -111.5 8t-84.5 45q-33 27 -52.5 46.5t-32.5 76.5zM1059 505q0 -66 30.5 -112.5t65.5 -72.5q55 -40 161 -40q26 0 102 11q62 10 100 14.5t51 7.5
q38 5 80 -2q16 -4 35.5 -7.5t32.5 -15.5l48 78q-41 21 -87 29q-76 13 -133 6q-17 -2 -44.5 -10t-74.5 -15q-101 -16 -107 -16q-39 0 -68 10t-52 22q-53 24 -108 113h-32z" />
  </g>

</svg>
