<?xml version="1.0" standalone="no"?>
<!DOCTYPE svg PUBLIC "-//W3C//DTD SVG 1.1//EN" "http://www.w3.org/Graphics/SVG/1.1/DTD/svg11.dtd" >
<svg viewBox="0 -410 2048 2048">
  <g transform="matrix(1 0 0 -1 0 1638)">
   <path fill="currentColor"
d="M524 583q190 48 504 48q308 0 497 -46l25 147q-201 53 -526 53q-327 0 -525 -54zM463 522l-33 187q-1 0 -3 4q-5 7 -28.5 18.5t-54.5 39.5q-44 37 -68.5 60t-44.5 50q-61 84 -68 203q-10 115 93 229q104 114 281 107q66 -4 155 -32q29 -12 59.5 -23.5t60.5 -23.5
q16 -8 28 -16q-5 21 -5 42q0 78 55.5 133t133.5 56q78 0 133 -55.5t55 -132.5q0 -16 -4 -42q14 9 27 15q46 20 121 47q86 29 155 33q177 8 280 -107q101 -114 94 -229q-8 -119 -69 -203q-20 -27 -45 -50.5t-67 -59.5q-33 -28 -56 -39.5t-27 -18.5q-1 -2 -2 -3t-1 -2
l-32 -188l66 -247q-50 -45 -224 -74t-402 -29q-232 0 -408 30.5t-221 76.5zM1544 405l-30 115q-198 44 -490 44q-291 0 -489 -44l-32 -116q191 56 522 56q329 0 519 -55zM1570 311q-193 78 -542 78q-362 0 -548 -80q176 -70 545 -70q176 0 321 19.5t224 52.5zM989 853
q-1 39 -3 77.5t-15 85.5q-41 134 -124 216q-43 42 -132 78q-102 40 -193 40q-158 0 -234 -113q-43 -60 -43 -150q0 -98 48 -161q29 -37 74 -74t84 -67q175 63 538 68zM1024 1039q7 28 12 39q10 39 23 66q6 17 17.5 39.5t24.5 51.5q8 17 17 41.5t18 48.5q8 20 8 43
q0 49 -35 83.5t-85 34.5q-119 0 -119 -119q0 -23 8 -43q22 -65 34 -90q13 -29 24 -51.5t19 -39.5q13 -33 22 -66q2 -6 12 -38zM1058 853q172 -2 315 -20.5t224 -46.5q38 30 83 66.5t75 74.5q48 61 48 161q0 90 -43 150q-77 112 -234 112q-94 0 -193 -39q-87 -35 -132 -78
q-84 -84 -124 -216q-14 -47 -16.5 -85.5t-2.5 -78.5zM1059 1559h-71v131h-83q-34 0 -34 33v1q0 33 34 33h83v85q0 35 36 35v0q35 0 35 -35v-85h86q33 0 33 -33v-1q0 -33 -33 -33l-85 -1z" />
  </g>

</svg>
