<?xml version="1.0" standalone="no"?>
<!DOCTYPE svg PUBLIC "-//W3C//DTD SVG 1.1//EN" "http://www.w3.org/Graphics/SVG/1.1/DTD/svg11.dtd" >
<svg viewBox="0 -410 2048 2048">
  <g transform="matrix(1 0 0 -1 0 1638)">
   <path fill="currentColor"
d="M1756 274q-1 0 2 54.5t3 117.5q1 125 0 258.5t-36 266.5q-34 128 -75 218.5t-89 156.5q-72 108 -196 183t-259 98q9 -49 8 -96q-2 -36 -34 -36q-37 0 -33 36q3 132 -94 226q-76 -80 -82 -186q-2 -35 -36 -31q-32 1 -32 37l2 8q-41 -13 -86 -37q-29 -20 -47 10t16 47
q43 22 65 33q-86 88 -196 142q12 -139 76 -263q17 -26 -8 -46q-28 -22 -47 7q-7 10 -20 36q-21 -21 -28 -31q-7 -9 -24.5 -40t-25.5 -51q-9 -25 -7.5 -40.5t2.5 -34.5q-9 -59 -40.5 -111t-80.5 -127q-47 -72 -72 -108t-38 -92q-9 -34 0 -82.5t39 -75.5q46 -47 89 -43
q14 0 37.5 11t36.5 42q26 57 43 57q25 0 27 -28q0 -6 -16 -50q-9 -20 -24 -42q-19 -26 -17 -22q16 -57 53 -20q11 11 25 41t44 81q35 59 75 96t71 60q18 13 44 30t70 35q35 14 77.5 34.5t75.5 52.5q46 45 71 111q13 37 10 91q-9 34 34 34q32 0 36 -33q0 -113 -64 -206
q21 -64 11 -140q-9 -61 -42.5 -130.5t-135.5 -154.5q-207 -172 -196 -354h170.5h320.5h547zM1079 1697q157 -10 291 -81t228 -182q66 -78 124.5 -188t93.5 -233q40 -143 50.5 -300.5t10.5 -291.5v-218h-155.5h-403.5h-671q-9 0 -8.5 49t6.5 79q4 24 19 68t50 107
q16 32 76 93.5t138 142.5q45 46 70.5 116t21.5 127q-37 -30 -81 -49q-212 -76 -307 -220q-7 -9 -45 -81q-20 -38 -34 -52q-19 -19 -55 -21q-56 -3 -87 54q-42 -12 -75 -10q-56 21 -81 45q-51 51 -66.5 102t-15.5 110q0 84 104 222q122 159 130 242q0 36 7 81q6 31 25 60
q13 20 17.5 27.5t16.5 22.5q9 12 15 18.5t15 17.5q11 13 28 30q-53 146 -43 301q199 -71 334 -223q33 113 130 183q80 -56 127 -148zM400 882q-29 -18 -35 -48q1 -33 -31 -36q-35 -4 -36 30q4 66 59 105q26 21 48 -4q22 -27 -5 -47zM697 1359q13 -20 10 -42q-10 -64 -71 -54
q-18 3 -29 12q-4 -5 -12 -22q-11 -32 -42 -22q-31 12 -24 45q45 115 163 158q34 10 45 -20q12 -32 -18 -44l-11 -5.5zM1799 119l-122 -119h-47l119 119h50zM1523 119l-121 -119h-49l124 119h46zM1246 119l-122 -119h-47l119 119h50zM960 119l-121 -119h-45l120 119h46z
M683 119l-120 -119h-45l117 119h48zM1226 1764q-35 8 -41 9l277 274h45zM120 705q4 -21 14 -36l-134 -132v48zM580 1953q-2 1 -29 13l81 81h45zM391 1807l-391 -394v-43l396 395q-4 24 -5 42zM0 1691l356 356h45l-401 -400v44zM753 1847q-2 1 -25 19l181 181h45zM350 1487
l-350 -351v-42l339 338q0 6 1.5 13.5t2.5 16.5q0 6 7 25zM1049 1868q-15 16 -20 23l156 156h45zM103 962q-13 -25 -23 -68l-80 -80v44zM1422 1682q-6 4 -31 17l347 348h45zM236 546q6 -4 15 -8l18 -8l-269 -269v48zM1949 0h-43l142 140v-45zM0 1923v44l79 80h45zM1964 285
v47l84 84v-46zM1962 559q-2 28 -2 45l88 87v-45zM1941 816q-2 14 -6 40l113 114v-47zM1893 1048q-6 23 -12 38l167 165v-45zM1813 1249q-5 12 -15 29l250 250v-45zM1710 1422l-18 24l356 358v-45zM567 326q-4 -23 -5 -52l-276 -274h-45zM1581 1568q-12 11 -25 22l459 457
q33 0 33 -7zM442 473q21 -6 39 -4l-468 -469q-13 0 -13 32z" />
  </g>

</svg>
