<?xml version="1.0" standalone="no"?>
<!DOCTYPE svg PUBLIC "-//W3C//DTD SVG 1.1//EN" "http://www.w3.org/Graphics/SVG/1.1/DTD/svg11.dtd" >
<svg viewBox="0 -410 2048 2048">
  <g transform="matrix(1 0 0 -1 0 1638)">
   <path fill="currentColor"
d="M697 1359q13 -20 10 -42q-10 -64 -71 -54q-18 3 -29 12q-4 -5 -12 -22q-11 -32 -42 -22q-31 12 -24 45q45 115 163 158q34 10 45 -20q12 -32 -18 -44l-11 -5.5zM400 882q-29 -18 -35 -48q1 -33 -31 -36q-35 -4 -36 30q4 66 59 105q26 21 48 -4q22 -27 -5 -47zM1079 1697
q157 -10 291 -81t228 -182q66 -78 124.5 -188t93.5 -233q40 -143 50.5 -300.5t10.5 -291.5v-218h-155.5h-403.5h-671q-9 0 -8.5 49t6.5 79q4 24 19 68t50 107q16 32 76 93.5t138 142.5q45 46 70.5 116t21.5 127q-37 -30 -81 -49q-212 -76 -307 -220q-7 -9 -45 -81
q-20 -38 -34 -52q-19 -19 -55 -21q-56 -3 -87 54q-42 -12 -75 -10q-56 21 -81 45q-51 51 -66.5 102t-15.5 110q0 84 104 222q122 159 130 242q0 36 7 81q6 31 25 60q13 20 17.5 27.5t16.5 22.5q9 12 15 18.5t15 17.5q11 13 28 30q-53 146 -43 301q199 -71 334 -223
q33 113 130 183q80 -56 127 -148zM1756 274q-1 0 2 54.5t3 117.5q1 125 0 258.5t-36 266.5q-34 128 -75 218.5t-89 156.5q-72 108 -196 183t-259 98q9 -49 8 -96q-2 -36 -34 -36q-37 0 -33 36q3 132 -94 226q-76 -80 -82 -186q-2 -35 -36 -31q-32 1 -32 37l2 8
q-41 -13 -86 -37q-29 -20 -47 10t16 47q43 22 65 33q-86 88 -196 142q12 -139 76 -263q17 -26 -8 -46q-28 -22 -47 7q-7 10 -20 36q-21 -21 -28 -31q-7 -9 -24.5 -40t-25.5 -51q-9 -25 -7.5 -40.5t2.5 -34.5q-9 -59 -40.5 -111t-80.5 -127q-47 -72 -72 -108t-38 -92
q-9 -34 0 -82.5t39 -75.5q46 -47 89 -43q14 0 37.5 11t36.5 42q26 57 43 57q25 0 27 -28q0 -6 -16 -50q-9 -20 -24 -42q-19 -26 -17 -22q16 -57 53 -20q11 11 25 41t44 81q35 59 75 96t71 60q18 13 44 30t70 35q35 14 77.5 34.5t75.5 52.5q46 45 71 111q13 37 10 91
q-9 34 34 34q32 0 36 -33q0 -113 -64 -206q21 -64 11 -140q-9 -61 -42.5 -130.5t-135.5 -154.5q-207 -172 -196 -354h170.5h320.5h547z" />
  </g>

</svg>
