<?xml version="1.0" standalone="no"?>
<!DOCTYPE svg PUBLIC "-//W3C//DTD SVG 1.1//EN" "http://www.w3.org/Graphics/SVG/1.1/DTD/svg11.dtd" >
<svg viewBox="0 -410 2048 2048">
  <g transform="matrix(1 0 0 -1 0 1638)">
   <path fill="currentColor"
d="M1814 1461q-57 0 -97 39.5t-40 96.5q0 56 40 96.5t97 40.5q56 0 96 -40.5t40 -96.5q0 -57 -40 -96.5t-96 -39.5zM1814 1531q66 0 66 66q0 67 -66 67q-67 0 -67 -67q0 -66 67 -66zM236 1531q67 0 67 66q0 67 -67 67q-66 0 -66 -67q0 -66 66 -66zM236 1461
q-57 0 -96.5 39.5t-39.5 96.5q0 56 39.5 96.5t96.5 40.5t97 -40.5t40 -96.5q0 -57 -40 -96.5t-97 -39.5zM1444 1571q-57 0 -96.5 39.5t-39.5 96.5q0 56 39.5 96t96.5 40t97 -40t40 -96q0 -57 -40 -96.5t-97 -39.5zM1444 1641q67 0 67 66t-67 66q-66 0 -66 -66t66 -66z
M604 1641q66 0 66 66t-66 66q-67 0 -67 -66t67 -66zM604 1571q-57 0 -97 39.5t-40 96.5q0 56 40 96t97 40q56 0 96 -40t40 -96q0 -57 -40 -96.5t-96 -39.5zM1559 319q-183 76 -531 76q-355 0 -537 -78q175 -69 534 -69q172 0 314.5 19t219.5 52zM1640 283q-49 -43 -220 -72
t-394 -29q-227 0 -399 30t-217 75l63 240l-28 157l-88 153l-85 622l49 19l274 -462l6 550l68 12l209 -553l112 595h69l112 -593l207 551l69 -12l6 -550l275 463l47 -22l-83 -619l-89 -153l-28 -159zM1534 411l-30 113q-196 43 -480 43q-281 0 -479 -43l-31 -114
q186 56 511 56q317 0 509 -55zM1474 917q23 -7 51 -7q61 0 114 38l55 346zM571 922l-215 371l55 -338q57 -40 111 -40q21 0 49 7zM825 978l-164 449v-457q3 4 9 10q20 42 66 42q38 0 62 -32zM1387 964v463l-165 -454q19 7 32 18q20 25 54 25q40 0 64 -35q3 -4 7 -8.5t8 -8.5
zM1110 983l-85 489l-85 -483q3 2 14 10q23 45 70 45q51 0 66 -45q6 -6 20 -16zM1558 744l65 115q-48 -19 -98 -19q-134 0 -214 109q-60 -50 -134 -50q-96 0 -153 75q-64 -70 -153 -70q-72 0 -132 49q-84 -107 -217 -107q-51 0 -101 19l70 -120q194 56 533 56q345 0 534 -57z
M1533 684q-193 49 -505 49q-320 0 -511 -50l15 -96q195 46 496 46q299 0 488 -45zM1024 1691q67 0 67 67q0 66 -67 66q-66 0 -66 -66q0 -67 66 -67zM1024 1621q-57 0 -96.5 40t-39.5 97q0 56 39.5 96t96.5 40q56 0 96.5 -40t40.5 -96q0 -57 -40.5 -97t-96.5 -40zM1263 1804
l-22 -22q-2 9 -4 19t-3 19l228 227h45l-164 -162q-51 -27 -80 -81zM271 855l6 -41l-277 -277v48zM407 1776l-22 -21q-13 13 -25 22l272 270h45l-146 -143q-98 -35 -124 -128zM58 1471q4 -6 20 -24l-78 -77v43zM152 1798q-81 -34 -115 -113l-37 -38v44l356 356h45zM764 1855
q-12 12 -25 22l170 170h45zM205 1341l5 -38l-210 -209v42zM1132 1947q-22 11 -33 15l86 85h45zM238 1097l5 -41l-243 -242v44zM1598 1862q-10 10 -25 19l165 166h45zM358 667l18 -31l-376 -375v48zM1949 0h-43l142 140v-45zM0 1923v44l79 80h45zM1630 0l418 416v-46
l-371 -370h-47zM1724 319l-10 38l334 334v-45zM1503 149q36 8 62 15l-163 -164h-49zM1646 520l11 60l391 390v-47zM1189 111q27 3 51 3l-116 -114h-47zM1791 950l8 53l249 248v-45zM948 109l-109 -109h-45l109 110q30 0 45 -1zM1835 1270l7 53l206 205v-45zM649 131
q10 -1 40 -5l-126 -126h-45zM2000 1712q-6 8 -19 24l67 68v-45zM427 184q15 -8 33 -12l-174 -172h-45zM1824 1814q-6 2 -10 2q-20 0 -34 -4l235 235q33 0 33 -7zM338 369l-338 -337q0 -32 13 -32l309 308z" />
  </g>

</svg>
