<?xml version="1.0" standalone="no"?>
<!DOCTYPE svg PUBLIC "-//W3C//DTD SVG 1.1//EN" "http://www.w3.org/Graphics/SVG/1.1/DTD/svg11.dtd" >
<svg viewBox="0 -410 2048 2048">
  <g transform="matrix(1 0 0 -1 0 1638)">
   <path fill="currentColor"
d="M1024 1621q-57 0 -96.5 40t-39.5 97q0 56 39.5 96t96.5 40q56 0 96.5 -40t40.5 -96q0 -57 -40.5 -97t-96.5 -40zM1024 1691q67 0 67 67q0 66 -67 66q-66 0 -66 -66q0 -67 66 -67zM1533 684q-193 49 -505 49q-320 0 -511 -50l15 -96q195 46 496 46q299 0 488 -45z
M1558 744l65 115q-48 -19 -98 -19q-134 0 -214 109q-60 -50 -134 -50q-96 0 -153 75q-64 -70 -153 -70q-72 0 -132 49q-84 -107 -217 -107q-51 0 -101 19l70 -120q194 56 533 56q345 0 534 -57zM1110 983l-85 489l-85 -483q3 2 14 10q23 45 70 45q51 0 66 -45q6 -6 20 -16z
M1387 964v463l-165 -454q19 7 32 18q20 25 54 25q40 0 64 -35q3 -4 7 -8.5t8 -8.5zM825 978l-164 449v-457q3 4 9 10q20 42 66 42q38 0 62 -32zM571 922l-215 371l55 -338q57 -40 111 -40q21 0 49 7zM1474 917q23 -7 51 -7q61 0 114 38l55 346zM1534 411l-30 113
q-196 43 -480 43q-281 0 -479 -43l-31 -114q186 56 511 56q317 0 509 -55zM1640 283q-49 -43 -220 -72t-394 -29q-227 0 -399 30t-217 75l63 240l-28 157l-88 153l-85 622l49 19l274 -462l6 550l68 12l209 -553l112 595h69l112 -593l207 551l69 -12l6 -550l275 463l47 -22
l-83 -619l-89 -153l-28 -159zM1559 319q-183 76 -531 76q-355 0 -537 -78q175 -69 534 -69q172 0 314.5 19t219.5 52zM604 1571q-57 0 -97 39.5t-40 96.5q0 56 40 96t97 40q56 0 96 -40t40 -96q0 -57 -40 -96.5t-96 -39.5zM604 1641q66 0 66 66t-66 66q-67 0 -67 -66t67 -66
zM1444 1641q67 0 67 66t-67 66q-66 0 -66 -66t66 -66zM1444 1571q-57 0 -96.5 39.5t-39.5 96.5q0 56 39.5 96t96.5 40t97 -40t40 -96q0 -57 -40 -96.5t-97 -39.5zM236 1461q-57 0 -96.5 39.5t-39.5 96.5q0 56 39.5 96.5t96.5 40.5t97 -40.5t40 -96.5q0 -57 -40 -96.5
t-97 -39.5zM236 1531q67 0 67 66q0 67 -67 67q-66 0 -66 -67q0 -66 66 -66zM1814 1531q66 0 66 66q0 67 -66 67q-67 0 -67 -67q0 -66 67 -66zM1814 1461q-57 0 -97 39.5t-40 96.5q0 56 40 96.5t97 40.5q56 0 96 -40.5t40 -96.5q0 -57 -40 -96.5t-96 -39.5z" />
  </g>

</svg>
