<?xml version="1.0" standalone="no"?>
<!DOCTYPE svg PUBLIC "-//W3C//DTD SVG 1.1//EN" "http://www.w3.org/Graphics/SVG/1.1/DTD/svg11.dtd" >
<svg viewBox="0 -410 2048 2048">
  <g transform="matrix(1 0 0 -1 0 1638)">
   <path fill="currentColor"
d="M1349 1365l127 103h-904l128 -103h649zM1459 649l-103 102h-663l-105 -102h871zM1536 1536v239h-137v-137h-308v137h-135v-137h-307v137h-137v-239h1024zM1314 1297h-580v-478h580v478zM1484 580h-920v-136h920v136zM1639 376h-1230v-103h1230v103zM1161 1706h170v137
h274v-375l-222 -171v-478l170 -170v-205h153v-239h-1365v239h153v205l171 170v478l-222 171v375h273v-137h171v137h274v-137zM360 1774l-360 -361v-43l360 360v44zM359 1497l-359 -361v-42l359 358v45zM580 1118l-580 -581v48l580 580v-47zM579 842v46l-579 -579v-48z
M253 285v-46l-240 -239q-13 0 -13 32zM637 119h46l-120 -119h-45zM913 119h44l-118 -119h-45zM1198 119h46l-120 -119h-47zM1791 390l1 46l256 255v-45zM1468 905l1 44l579 579v-45zM1468 1182v43l580 579v-45zM1688 1681v39l327 327q33 0 33 -7zM1386 1927h-44l120 120h45z
M1111 1927h-44l118 120h45zM835 1928l-47 -1l121 120h45zM0 1691l356 356h45l-401 -400v44zM504 1317l-504 -503v44l478 480zM1949 0h-43l142 140v-45zM0 1923v44l79 80h45zM1630 0l418 416v-46l-371 -370h-47zM1522 119l-120 -119h-49l121 119h48zM1579 736l-24 24l493 491
v-45zM1639 516v46l409 408v-47zM1663 1927h-45l120 120h45zM361 119h44l-119 -119h-45zM557 1928h-45l120 119h45z" />
  </g>

</svg>
