<?xml version="1.0" standalone="no"?>
<!DOCTYPE svg PUBLIC "-//W3C//DTD SVG 1.1//EN" "http://www.w3.org/Graphics/SVG/1.1/DTD/svg11.dtd" >
<svg viewBox="0 -410 2048 2048">
  <g transform="matrix(1 0 0 -1 0 1638)">
   <path fill="currentColor"
d="M1170 1024l482 -482q73 -73 0 -146v0q-73 -73 -145 0l-483 482l-482 -482q-73 -73 -147 0v0q-72 73 0 147l482 482l-482 482q-73 73 0 146v0q73 73 146 0l483 -482l481 482q73 71 147 0v0q72 -75 0 -147zM340 326l-327 -326q-13 0 -13 32l318 316q3 -4 6 -7.5t7 -6.5v0
q6 -6 9 -8zM1701 1692l347 348q0 7 -33 7l-335 -336l15 -12v-1q1 -2 2.5 -3.5t3.5 -2.5zM1048 759l-23 23l-784 -782h45zM1290 1002l-22 22l780 780v-45zM1186 621l-623 -621h-45l645 643zM1428 863l-23 23l643 642v-45zM1324 483l-485 -483h-45l507 505zM1567 725l-24 23
l505 503v-45zM1466 341l-342 -341h-47l366 365zM1708 583l-23 24l363 363v-47zM1353 0l695 691v-45l-646 -646h-49zM1630 0l418 416v-46l-371 -370h-47zM0 1923v44l79 80h45zM1949 0h-43l142 140v-45zM773 1034l-773 -773v48l749 749zM1014 1277l-23 23l747 747h45z
M496 1311l-22 22l-474 -475v-44zM738 1553l-23 23l470 471h45zM357 1450l-357 -356v42l335 335zM599 1692l355 355h-45l-332 -333zM0 1691l356 356h45l-401 -400v44zM0 1413l632 634h45l-677 -677v43zM635 1172l-635 -635v48l612 610zM876 1415l-23 23l609 609h45z" />
  </g>

</svg>
